<?xml version="1.0" encoding="UTF-8"?>
<svg data-bbox="0.03 0 100.04 99.998" viewBox="0 0 100 100" xmlns="http://www.w3.org/2000/svg" data-type="shape">
    <g>
        <path d="M100.07 47.43v5.08l-.64 4.92C95.9 79.06 78.72 96.68 56.79 99.54c-1.17.15-2.46.12-3.58.42-2-.09-4.06.12-6.05 0C23.68 98.59 3.7 80.21.51 56.88-3.79 25.52 21.4-.83 52.48.02zM50.08 3.3c-1.63.29-3.31.22-4.95.41C25.97 5.99 9.24 20.02 4.75 38.91c-7.85 33 20.63 62.94 53.93 56.86 21.73-3.97 37.7-23.61 37.88-45.6-3.86.27-7.71.08-11.52-.58.43 16.62-11.83 31.58-28.08 34.7-25.18 4.84-46.74-17.51-40.95-42.52 2.77-11.97 12.37-22.04 24.17-25.44 3.5-1.01 6.87-1.36 10.5-1.51-.72-3.8-.58-7.67-.59-11.52Zm44.33 43.54-41.01-41c.06 6.2.73 12.44 3.23 18.15 6.06 13.87 21.1 22.92 36.13 23.06.55 0 1.08-.28 1.65-.2ZM51.23 18.36c-14.2-.69-27.52 8.88-31.47 22.48-7.28 25.04 16.58 47.58 41.16 38.82 12.72-4.53 21.3-17.31 20.77-30.84-2.66-.6-5.23-1.59-7.7-2.75-.28.02-.41 1.71-.54 2.18-.52 1.87-1.4 3.5-2.58 5.04L50.14 72.22c-.14.02-1.23-.87-1.44-1.06-5.67-4.95-11.76-10.42-17.18-15.62-2.81-2.7-4.95-5.26-5.27-9.38-.94-12.35 14.51-18.64 23.76-11.65 2.17-1.31 4.49-2.59 7.09-2.71-2.73-4.09-4.85-8.62-5.88-13.45ZM39.89 34.99c-8.95.76-13.82 10.41-7.09 17.13l17.36 15.6 17.8-16.19c1.75-2.03 2.75-4.57 2.41-7.29-4.07-2.55-7.66-5.68-10.85-9.27-2.82-.1-5.5.89-7.74 2.53-.44.32-1.19 1.3-1.61 1.34-.62.06-1.08-.82-1.56-1.18-2.53-1.91-5.53-2.95-8.72-2.68Z"/>
        <path d="M7.02 49.97c-.24-.08-.3-.43-.3-.67 0-1.03.47-3.11.69-4.22 2.9-15.01 12.33-29.62 27.14-34.96l1.07 3.11c-14.24 5.52-22.5 19.19-25.12 33.76-.17.96-.08 2.21-.54 2.97H7.03Z"/>
        <path d="M50.08 93.32V89.8c14.68-.56 28.54-8.99 35.15-22.18.24-.16 2.95 1.12 2.94 1.57 0 .43-2.88 4.94-3.36 5.63-7.93 11.24-21.09 17.66-34.72 18.49Z"/>
        <path d="M46.76 89.81v3.52h-3.32v-3.52z"/>
        <path d="M10.05 53.29v3.32H6.73v-3.32z"/>
    </g>
</svg>
